<!DOCTYPE svg PUBLIC "-//W3C//DTD SVG 1.1//EN" "http://www.w3.org/Graphics/SVG/1.1/DTD/svg11.dtd">
<!-- Uploaded to: SVG Repo, www.svgrepo.com, Transformed by: SVG Repo Mixer Tools -->
<svg height="60px" width="60px" version="1.1" id="_x32_" xmlns="http://www.w3.org/2000/svg" xmlns:xlink="http://www.w3.org/1999/xlink" viewBox="0 0 512 512" xml:space="preserve" fill="#6b7280">

<g id="SVGRepo_bgCarrier" stroke-width="0"/>

<g id="SVGRepo_tracerCarrier" stroke-linecap="round" stroke-linejoin="round"/>

<g id="SVGRepo_iconCarrier"> <style type="text/css"> .st0{fill:#6b7280;} </style> <g> <path class="st0" d="M124.848,196.436h-0.015c0.015,0,0.029,0,0.037,0.008L124.848,196.436z"/> <path class="st0" d="M387.131,196.444c0,0,0.015,0,0.022-0.008h-0.007L387.131,196.444z"/> <path class="st0" d="M110.552,203.576c0.004-0.007,0.011-0.014,0.015-0.022l0.261-0.559L110.552,203.576z"/> <path class="st0" d="M506.527,262.334c-0.647-2.463-6.691-25.053-17.092-55.264c-10.99-31.903-26.76-72.225-46.488-106.59 c-15.966-27.77-30.756-47.586-46.009-62.774c-15.225-15.188-30.857-25.576-47.578-34.474c-2.288-1.213-4.562-1.947-6.916-2.456 c-2.339-0.501-4.765-0.748-7.278-0.748c-4.22,0.007-8.703,0.698-13.192,2.492c-2.237,0.908-4.468,2.099-6.581,3.661 c-2.121,1.554-4.112,3.486-5.796,5.782l1.366-1.86l-1.366,1.852c-5.172,7.002-12.218,13.177-21.109,17.637 c-8.898,4.453-19.656,7.228-32.484,7.235c-12.988-0.008-23.68-2.564-32.44-6.85c-8.76-4.3-15.676-10.337-21.036-17.854 c-1.671-2.34-3.646-4.315-5.768-5.898c-3.174-2.39-6.61-3.922-9.958-4.874C183.437,0.4,180.125,0,176.958,0 c-2.535,0-4.983,0.254-7.35,0.762c-2.357,0.516-4.628,1.242-6.919,2.448l0.556-0.298l-0.588,0.312l-0.007,0.008 c-16.721,8.898-32.353,19.286-47.592,34.474c-15.24,15.189-30.036,35.005-45.995,62.774 c-19.729,34.365-35.506,74.687-46.496,106.59c-10.395,30.21-16.438,52.801-17.091,55.264c-1.178,3.349-1.795,6.842-1.795,10.329 c0,4.692,1.06,9.385,3.167,13.693c3.835,7.852,10.787,13.735,19.162,16.22l30.254,8.978c2.934,0.865,5.927,1.294,8.876,1.294 c5.942-0.008,11.68-1.7,16.606-4.795c4.925-3.087,9.051-7.62,11.658-13.205l21.596-46.22L130.6,449.821h0.015 c0.537,15.916,6.101,31.155,16.358,42.77c5.193,5.862,11.614,10.765,19.045,14.157c7.424,3.4,15.843,5.26,24.828,5.252h0.102h0.022 h0.123c8.455,0.008,16.526-1.838,23.753-5.114c10.86-4.911,19.83-12.966,26.223-22.766c6.269-9.632,10.082-21.007,10.736-33.028 h0.007l4.192-41.433l4.169,41.331c0.872,16.148,7.417,31.118,17.986,42.298c5.353,5.651,11.76,10.329,18.995,13.598 c7.228,3.276,15.291,5.121,23.761,5.114h0.094h0.022h0.124c8.985,0.008,17.396-1.852,24.828-5.252 c11.164-5.092,19.983-13.554,25.932-23.622c5.876-9.922,9.072-21.407,9.479-33.305l15.603-201.186l21.603,46.212 c2.608,5.586,6.74,10.118,11.659,13.205c4.925,3.095,10.67,4.787,16.612,4.795c2.949,0,5.942-0.428,8.877-1.294l30.246-8.97 c8.383-2.492,15.327-8.376,19.162-16.227c2.106-4.308,3.167-9,3.167-13.693C508.321,269.177,507.704,265.683,506.527,262.334z M484.394,276.216c-0.995,2.041-2.804,3.566-4.976,4.213l-30.247,8.97c-0.777,0.233-1.547,0.342-2.303,0.342 c-1.525,0-3.036-0.443-4.314-1.249c-1.294-0.814-2.324-1.948-3.022-3.429l-37.91-81.108l-0.174-0.378 c-1.068-2.28-2.768-4.154-4.787-5.426c-2.019-1.278-4.387-1.99-6.864-1.99c-0.879,0-1.765,0.095-2.644,0.276 c-2.913,0.61-5.462,2.208-7.257,4.373c-1.67,1.997-2.695,4.568-2.89,7.292h-0.044l-18.624,240.23l-0.007,0.298 c-0.276,11.179-4.22,21.472-10.598,28.634c-3.196,3.602-6.973,6.464-11.346,8.462c-4.387,1.997-9.385,3.16-15.232,3.166h-0.11 h-0.014h-0.116c-5.144-0.007-9.88-1.089-14.238-3.058c-6.537-2.95-12.232-7.954-16.38-14.331 c-4.154-6.364-6.719-14.041-7.068-22.09l-0.014-0.326l-9.436-93.297h-17.774h-17.782l-9.428,93.297l-0.015,0.326 c-0.465,10.729-4.896,20.804-11.709,27.98c-3.414,3.596-7.38,6.473-11.738,8.441c-4.366,1.969-9.109,3.051-14.238,3.058h-0.101 h-0.022h-0.124c-5.84-0.007-10.852-1.169-15.224-3.166c-6.552-2.993-11.826-7.94-15.661-14.39 c-3.821-6.429-6.08-14.332-6.29-22.706v-0.298l-18.639-240.23h-0.029c-0.203-2.724-1.235-5.296-2.905-7.292 c-1.787-2.172-4.344-3.771-7.264-4.373c-0.864-0.181-1.758-0.276-2.629-0.276c-2.477,0-4.852,0.712-6.872,1.99 c-2.012,1.264-3.705,3.131-4.765,5.404l-38.099,81.508h0.008c-0.698,1.475-1.744,2.615-3.022,3.429 c-1.293,0.806-2.797,1.249-4.315,1.249c-0.755,0-1.525-0.109-2.309-0.342l-30.247-8.97c-2.18-0.646-3.981-2.172-4.976-4.213 c-0.545-1.119-0.821-2.332-0.821-3.552c0-1.002,0.189-1.997,0.567-2.956l0.247-0.632l0.174-0.661l0.058-0.232 c0.669-2.55,6.944-25.925,17.6-56.527c10.634-30.596,25.721-68.454,43.663-99.661c15.269-26.563,28.882-44.57,42.276-57.914 c13.41-13.336,26.658-22.184,42.138-30.45c0.051-0.022,0.458-0.189,1.068-0.306c0.64-0.124,1.496-0.217,2.382-0.217 c1.598-0.008,3.313,0.305,4.49,0.799c0.602,0.247,1.075,0.523,1.438,0.792c0.356,0.269,0.603,0.523,0.814,0.821 c7.452,10.489,17.477,19.234,29.695,25.213c12.224,5.993,26.57,9.21,42.61,9.203c16.198,0.007,30.653-3.573,42.842-9.682 c12.182-6.109,22.068-14.71,29.338-24.567c0.24-0.326,0.523-0.617,0.922-0.908c0.581-0.436,1.438-0.872,2.528-1.17 c1.075-0.312,2.354-0.479,3.53-0.472c0.936-0.007,1.816,0.101,2.44,0.24c0.32,0.066,0.567,0.138,0.727,0.196l0.159,0.058h0.015 c15.465,8.266,28.721,17.113,42.13,30.45c13.394,13.344,27.007,31.351,42.268,57.914c18.53,32.208,33.995,71.513,44.68,102.595 c5.353,15.545,9.53,29.056,12.363,38.651c1.409,4.794,2.484,8.615,3.211,11.215c0.363,1.308,0.632,2.31,0.813,2.978 c0.087,0.334,0.16,0.581,0.204,0.748l0.058,0.232l0.174,0.661l0.247,0.632c0.378,0.951,0.559,1.954,0.559,2.956 C485.214,273.884,484.938,275.097,484.394,276.216z"/> <path class="st0" d="M256.004,268.901c-9.124,0-16.526,7.394-16.526,16.518c0,9.13,7.402,16.525,16.526,16.525 c9.124,0,16.518-7.395,16.518-16.525C272.522,276.295,265.127,268.901,256.004,268.901z"/> <path class="st0" d="M256.004,193.226c-9.124,0-16.526,7.395-16.526,16.518c0,9.131,7.402,16.525,16.526,16.525 c9.124,0,16.518-7.394,16.518-16.525C272.522,200.62,265.127,193.226,256.004,193.226z"/> <path class="st0" d="M256.004,117.551c-9.124,0-16.526,7.395-16.526,16.526c0,9.124,7.402,16.518,16.526,16.518 c9.124,0,16.518-7.394,16.518-16.518C272.522,124.946,265.127,117.551,256.004,117.551z"/> </g> </g>

</svg>