<!DOCTYPE svg PUBLIC "-//W3C//DTD SVG 1.1//EN" "http://www.w3.org/Graphics/SVG/1.1/DTD/svg11.dtd">
<!-- Uploaded to: SVG Repo, www.svgrepo.com, Transformed by: SVG Repo Mixer Tools -->
<svg height="60px" width="60px" version="1.1" id="_x32_" xmlns="http://www.w3.org/2000/svg" xmlns:xlink="http://www.w3.org/1999/xlink" viewBox="0 0 512 512" xml:space="preserve" fill="#6b7280">

<g id="SVGRepo_bgCarrier" stroke-width="0"/>

<g id="SVGRepo_tracerCarrier" stroke-linecap="round" stroke-linejoin="round"/>

<g id="SVGRepo_iconCarrier"> <style type="text/css"> .st0{fill:#6b7280;} </style> <g> <path class="st0" d="M300.27,0h-16.165h-57.751H211.73H94.318v48.511v20.014V512h147.952L256,352.018L269.729,512h147.953V68.525 V48.511V0H300.27z M227.128,15.398h57.744v37.729h-57.744V15.398z M109.716,15.398h101.239v37.729H109.716V15.398z M109.716,63.909 h52.262c-0.443,23.015-7.676,44.202-18.632,59.518c-5.654,7.917-12.262,14.262-19.3,18.563c-4.639,2.835-9.443,4.706-14.33,5.714 V63.909z M228.135,496.602H109.716V158.727c7.007-1.127,13.737-3.729,19.955-7.541c12.721-7.804,23.435-20.458,31.06-35.992 c7.308-14.917,11.638-32.564,11.984-51.285h58.646v164.103h19.827L228.135,496.602z M242.143,217.23V63.909h27.714V217.23H242.143z M402.283,496.602h-118.42l-23.052-268.59h19.827V63.909h58.6c0.474,25.24,8.286,48.458,20.646,65.782 c6.376,8.924,13.962,16.3,22.444,21.495c6.218,3.812,12.947,6.414,19.955,7.541V496.602z M402.283,147.705 c-4.888-1.008-9.7-2.88-14.33-5.714c-10.556-6.443-20.143-17.518-27-31.533c-6.572-13.406-10.556-29.488-10.894-46.548h52.225 V147.705z M402.283,53.127h-102.78V15.398h102.78V53.127z"/> </g> </g>

</svg>