<!DOCTYPE svg PUBLIC "-//W3C//DTD SVG 1.1//EN" "http://www.w3.org/Graphics/SVG/1.1/DTD/svg11.dtd">
<!-- Uploaded to: SVG Repo, www.svgrepo.com, Transformed by: SVG Repo Mixer Tools -->
<svg height="60px" width="60px" version="1.1" id="_x32_" xmlns="http://www.w3.org/2000/svg" xmlns:xlink="http://www.w3.org/1999/xlink" viewBox="0 0 512 512" xml:space="preserve" fill="#6b7280">

<g id="SVGRepo_bgCarrier" stroke-width="0"/>

<g id="SVGRepo_tracerCarrier" stroke-linecap="round" stroke-linejoin="round"/>

<g id="SVGRepo_iconCarrier"> <style type="text/css"> .st0{fill:#6b7280;} </style> <g> <path class="st0" d="M446.155,294.55l0.014,0.035c-9.789-16.553-24.348-30.656-42.592-40.024l-58.934-30.481V0H131.642v28.762 v27.569H50.788v28.796v260.07c0.021,39.792,22.229,76.286,57.565,94.586l116.563,60.302C240.493,508.14,257.298,512,273.781,512 c19.296-0.014,38.164-5.242,54.64-15.058c16.426-9.775,30.487-24.194,39.91-42.361c14.448-1.859,28.369-6.504,40.915-13.942 l0.035-0.014c16.503-9.838,30.593-24.32,40.037-42.522l0.014-0.042c8.013-15.563,11.879-32.361,11.879-48.878 C461.212,329.943,455.992,311.054,446.155,294.55z M353.849,405.555c0,12.356-2.883,24.952-8.953,36.67l-0.014,0.014 c-7.094,13.724-17.655,24.558-30.025,31.926c-12.385,7.382-26.601,11.318-41.083,11.325c-12.356,0-24.945-2.891-36.684-8.954 l-116.548-60.295c-26.531-13.732-43.238-41.181-43.244-71.059V85.128v-2.294h159.982v213.681l73.311,37.919 c13.731,7.1,24.572,17.668,31.926,30.018l11.395-6.771l-11.388,6.786C349.913,376.857,353.841,391.058,353.849,405.555z M425.778,385.902c-7.122,13.732-17.682,24.551-30.074,31.947l0.035-0.014c-5.487,3.248-11.29,5.782-17.31,7.642 c1.278-6.631,1.93-13.304,1.93-19.935c-0.007-19.282-5.234-38.158-15.065-54.647c-9.803-16.489-24.299-30.593-42.529-40.01 l-58.976-30.509V56.331H158.151V28.762v-2.26h159.982v213.71l72.61,37.547l0.723,0.372c13.704,7.059,24.594,17.619,31.891,29.955 l0.029,0.035c7.388,12.398,11.318,26.636,11.318,41.062C434.703,361.56,431.812,374.169,425.778,385.902z"/> </g> </g>

</svg>